<?xml version="1.0" encoding="UTF-8" standalone="no"?>
<!-- Created with Inkscape (http://www.inkscape.org/) -->

<svg
   xmlns:dc="http://purl.org/dc/elements/1.1/"
   xmlns:cc="http://creativecommons.org/ns#"
   xmlns:rdf="http://www.w3.org/1999/02/22-rdf-syntax-ns#"
   xmlns:svg="http://www.w3.org/2000/svg"
   xmlns="http://www.w3.org/2000/svg"
   xmlns:sodipodi="http://sodipodi.sourceforge.net/DTD/sodipodi-0.dtd"
   xmlns:inkscape="http://www.inkscape.org/namespaces/inkscape"
   width="1004.2099"
   height="269.37927"
   id="svg4067"
   version="1.1"
   inkscape:version="0.48.3.1 r9886"
   sodipodi:docname="tvfoot.svg">
  <defs
     id="defs4069" />
  <sodipodi:namedview
     inkscape:document-units="mm"
     pagecolor="#ffffff"
     bordercolor="#666666"
     borderopacity="1.0"
     inkscape:pageopacity="0.0"
     inkscape:pageshadow="2"
     inkscape:zoom="0.43415836"
     inkscape:cx="460.04105"
     inkscape:cy="-81.866877"
     inkscape:current-layer="layer1"
     id="namedview4071"
     showgrid="false"
     inkscape:window-width="731"
     inkscape:window-height="626"
     inkscape:window-x="1494"
     inkscape:window-y="164"
     inkscape:window-maximized="0"
     units="mm"
     fit-margin-top="0"
     fit-margin-left="0"
     fit-margin-right="0"
     fit-margin-bottom="0" />
  <metadata
     id="metadata4073">
    <rdf:RDF>
      <cc:Work
         rdf:about="">
        <dc:format>image/svg+xml</dc:format>
        <dc:type
           rdf:resource="http://purl.org/dc/dcmitype/StillImage" />
        <dc:title></dc:title>
      </cc:Work>
    </rdf:RDF>
  </metadata>
  <g
     inkscape:label="Layer 1"
     inkscape:groupmode="layer"
     id="layer1"
     transform="translate(-29.958948,-12.848319)">
    <path
       sodipodi:nodetypes="ssssssssssssssccssscscsssscssssss"
       inkscape:connector-curvature="0"
       id="path4044"
       d="m 472.25447,281.67637 c -94.8646,-2.7001 -204.37595,-9.4761 -260,-16.0873 -52.36487,-6.2238 -107.73172,-16.3752 -133.61593,-24.4981 -12.22109,-3.8352 -25.76624,-10.514 -32.63512,-16.0915 -5.35999,-4.3524 -10.88193,-15.7548 -12.79003,-26.4106 -0.74794,-4.1768 -1.88929,-8.7561 -2.53632,-10.1762 -1.76037,-3.8636 -0.38373,-7.3616 5.23532,-13.303 13.79752,-14.5888 52.61486,-26.5668 112.84208,-34.8201 64.3135,-8.8132 108.84544,-13.0919 167.5,-16.0939 53.70632,-2.7487 66.83622,-3.6221 68.59412,-4.5629 2.96274,-1.5856 10.68707,-11.0619 13.84255,-16.9822 6.51554,-12.224395 12.13758,-32.981495 14.12947,-52.167495 0.58814,-5.6649 1.69558,-11.4634 2.46097,-12.8854 1.2006,-2.2306 1.18675,-2.878 -0.10093,-4.7164 -0.97928,-1.3981 -1.39517,-3.9479 -1.20936,-7.4145 -4.89531,-19.4212001 247.62371,-12.2826 239.78321,-5.7836 l 0,6.5657 c 0,3.6112 -0.4192,7.349 -0.9315,8.3063 -1.0588,1.9785 0.9198,21.1595 3.4173,33.128 1.9691,9.4363 7.8017,27.6761 10.6351,33.258595 2.952,5.8159 7.5708,12.4381 12.1311,17.3928 l 3.821,4.1514 12.7135,0.6489 c 128.3681,6.5517 211.0121,16.2706 284.2242,33.4245 19.9686,4.6788 38.8603,13.3232 47.6394,21.7988 6.7498,6.5164 7.8864,9.5851 5.8573,15.814 -0.7186,2.206 -1.6136,6.2106 -1.9889,8.899 -0.9775,7.0012 -7.1139,20.4586 -11.3764,24.9484 -4.3461,4.5779 -10.0739,7.6284 -24.0858,12.8274 -25.7803,9.5657 -72.9942,19.277 -120.5563,24.797 -9.9,1.149 -23.625,2.7414 -30.5,3.5387 -32.9716,3.824 -59.4927,5.5284 -171,10.9895 -36.8336,1.804 -158.94413,2.7155 -201.50003,1.5042 z"
       style="fill:#c6c6c6" />
    <path
       inkscape:connector-curvature="0"
       id="path4042"
       d="m 491.25447,281.08477 c -6.05,-0.1846 -26.75,-0.8155 -46,-1.4019 -45.02882,-1.3719 -123.05525,-5.3983 -156,-8.0502 -65.34324,-5.2597 -99.67598,-9.2137 -139.5,-16.0656 -35.03666,-6.0282 -58.47894,-11.2584 -74,-16.5101 -12.67482,-4.2887 -34,-16.4911 -34,-19.4552 0,-0.5023 -1.36775,-3.8081 -3.03944,-7.3462 -1.67169,-3.5382 -3.653,-9.7269 -4.40291,-13.7527 -0.74991,-4.0258 -1.80986,-8.7268 -2.35544,-10.4466 -3.93421,-12.4013 20.26811,-26.8107 60.85245,-36.2297 57.22273,-13.2805 162.9172,-24.6373 266.44534,-28.6294 24.73112,-0.9536 25.05811,-1.0195 30.10006,-6.0614 12.66066,-12.6607 22.22512,-39.128195 24.91709,-68.952595 0.39715,-4.4 1.3992,-9.168 2.22678,-10.5955 1.35072,-2.3298 1.33827,-2.8494 -0.12163,-5.0775 -1.31706,-2.0101 -1.44935,-3.4182 -0.69567,-7.4045 -5.38408,-7.5451 236.8047,-23.4346001 236.2245,1.4258 -0.03,4.2084 -0.071,10.5767 -0.089,14.1517 -0.079,15.4093 7.4403,47.1057 14.4998,61.124195 3.258,6.4695 10.5685,16.5409 14.5384,20.029 1.9798,1.7395 2.5914,1.7967 41.3991,3.8725 101.1951,5.4127 191.0098,16.5874 257.0131,31.9773 22.8544,5.329 46.1801,16.9104 51.5464,25.5932 2.2804,3.6898 2.2833,5.3851 0.029,16.9038 -2.1585,11.0277 -8.554,25.0241 -13.2525,29.0026 -9.4289,7.9841 -38.8876,17.4651 -78.8859,25.3887 -30.154,5.9735 -44.857,8.1501 -84.9497,12.5759 -47.294,5.2208 -55.8376,5.7899 -180.5,12.0245 -28.021,1.4014 -154.99253,2.7338 -182.00003,1.9099 z"
       style="fill:#999999"
       sodipodi:nodetypes="csssssssssssscscccssssscsssscc" />
    <path
       sodipodi:nodetypes="csssscsscsssscsssccccssscsssccsscssssccsscs"
       inkscape:connector-curvature="0"
       id="path4040"
       d="m 493.75447,281.07847 c -5.775,-0.1895 -25.61635,-0.8079 -44.09189,-1.3742 -54.35663,-1.666 -150.50015,-7.2253 -199.90811,-11.5592 -76.60506,-6.7196 -153.53905,-20.562 -182.85216,-32.8997 -11.78579,-4.9605 -25.14784,-13.9465 -25.14784,-16.9119 0,-0.5265 -1.12276,-3.3306 -2.49502,-6.2313 -1.37225,-2.9008 -2.96042,-7.6692 -3.52926,-10.5965 -0.56884,-2.9274 -1.76029,-7.8868 -2.64768,-11.0209 -1.33874,-4.7282 -1.40001,-6.2136 -0.35983,-8.7249 4.14793,-10.0139 27.64091,-21.8409 56.98689,-28.6887 17.80957,-4.1558 38.82565,-8.1155 54.5449,-10.277 72.42948,-9.9593 115.43646,-13.9439 190,-17.6035 16.5,-0.8098 34.5,-1.7561 40,-2.1028 l 10,-0.6304 6.01865,-6.1371 c 12.19591,-12.4361 20.6974,-35.827895 24.46025,-67.302395 0.58092,-4.8591 1.5723,-9.8435 2.20307,-11.0763 0.86477,-1.6901 0.86046,-2.87 -0.0176,-4.797 -1.54991,-3.4017 -1.47671,-8.6521 0.15166,-10.8791 126.28041,-8.239 108.40565,-3.2743 186.18397,-2.5653 12.69954,3.9781 37.70163,-6.8551 47.58013,2.584 0.6945,0.8367 0.8883,3.4975 0.5186,7.1197 -0.8193,8.0265 -0.806,8.7096 0.3562,18.2377 2.3384,19.1725 7.2533,39.0028 12.5579,50.6679 6.1827,13.595995 16.7101,26.371695 21.7401,26.383195 24.7844,0.057 149.2742,9.4429 172.7471,13.0246 3.575,0.5455 16.475,2.3278 28.6666,3.9605 45.7682,6.1296 92.6976,15.5233 110.7515,22.1688 17.8013,6.5526 32.4995,16.56 34.1596,23.258 0.4482,1.8086 0.1237,4.8484 -0.8541,8 -0.8674,2.7956 -2.0784,7.558 -2.691,10.583 -0.6126,3.025 -2.2165,7.75 -3.5641,10.5 -1.3476,2.75 -2.4543,5.4688 -2.4594,6.0418 -0.02,2.2755 -8.8722,9.5316 -15.0273,12.3176 -32.958,14.9179 -90.7046,26.2542 -178.9818,35.1363 -13.0016,1.3082 -66.3598,4.5859 -114,7.0029 -21.725,1.1023 -47.825,2.4521 -58,2.9996 -18.3795,0.9891 -142.91133,2.0565 -163.00007,1.3971 z m -18,-181.395295 c -1.97012,-1.2732 -4.28687,-1.2732 -3.5,0 0.33992,0.549995 1.60398,0.993095 2.80902,0.984695 1.78123,-0.013 1.91046,-0.1966 0.69098,-0.984695 z"
       style="fill:#848484" />
    <path
       inkscape:connector-curvature="0"
       id="path4038"
       d="m 493.75447,281.07847 c -5.775,-0.1895 -25.61635,-0.8079 -44.09189,-1.3742 -54.35663,-1.666 -150.50015,-7.2253 -199.90811,-11.5592 -76.60506,-6.7196 -153.53905,-20.562 -182.85216,-32.8997 -11.78579,-4.9605 -25.14784,-13.9465 -25.14784,-16.9119 0,-0.5265 -1.12276,-3.3306 -2.49502,-6.2313 -1.37225,-2.9008 -2.96042,-7.6692 -3.52926,-10.5965 -0.56884,-2.9274 -1.76029,-7.8868 -2.64768,-11.0209 -1.33874,-4.7282 -1.40001,-6.2136 -0.35983,-8.7249 4.14793,-10.0139 27.64091,-21.8409 56.98689,-28.6887 17.80957,-4.1558 38.82565,-8.1155 54.5449,-10.277 72.42948,-9.9593 115.43646,-13.9439 190,-17.6035 16.5,-0.8098 34.5,-1.7561 40,-2.1028 l 10,-0.6304 6.01865,-6.1371 c 12.19591,-12.4361 20.6974,-35.827895 24.46025,-67.302395 0.58092,-4.8591 1.5723,-9.8435 2.20307,-11.0763 0.86477,-1.6901 0.86046,-2.87 -0.0176,-4.797 -1.44234,-3.1656 -1.50123,-7.9636 -0.12923,-10.5272 1.01431,-1.8953 3.37106,-1.9343 116.87756,-1.9343 100.56893,0 116.00293,0.1933 117.05943,1.4663 0.8141,0.981 1.0215,3.3809 0.6266,7.25 -0.8193,8.0265 -0.806,8.7096 0.3562,18.2377 2.3384,19.1725 7.2533,39.0028 12.5579,50.6679 6.1827,13.595995 16.7101,26.371695 21.7401,26.383195 24.7844,0.057 149.2742,9.4429 172.7471,13.0246 3.575,0.5455 16.475,2.3278 28.6666,3.9605 45.7682,6.1296 92.6976,15.5233 110.7515,22.1688 17.8013,6.5526 32.4995,16.56 34.1596,23.258 0.4482,1.8086 0.1237,4.8484 -0.8541,8 -0.8674,2.7956 -2.0784,7.558 -2.691,10.583 -0.6126,3.025 -2.2165,7.75 -3.5641,10.5 -1.3476,2.75 -2.4543,5.4688 -2.4594,6.0418 -0.02,2.2755 -8.8722,9.5316 -15.0273,12.3176 -32.958,14.9179 -90.7046,26.2542 -178.9818,35.1363 -13.0016,1.3082 -66.3598,4.5859 -114,7.0029 -21.725,1.1023 -47.825,2.4521 -58,2.9996 -18.3795,0.9891 -142.91133,2.0565 -163.00007,1.3971 z m -18,-181.395295 c -1.97012,-1.2732 -4.28687,-1.2732 -3.5,0 0.33992,0.549995 1.60398,0.993095 2.80902,0.984695 1.78123,-0.013 1.91046,-0.1966 0.69098,-0.984695 z"
       style="fill:#7b7b7b"
       sodipodi:nodetypes="csssscsscsssscssscsscssscsssccsscssssccsscs" />
    <path
       sodipodi:nodetypes="csssscsscsssscsssccscscsscsssccsscssssccsscs"
       inkscape:connector-curvature="0"
       id="path4036"
       d="m 493.75447,281.07847 c -5.775,-0.1895 -25.61635,-0.8079 -44.09189,-1.3742 -54.35663,-1.666 -150.50015,-7.2253 -199.90811,-11.5592 -76.60506,-6.7196 -153.53905,-20.562 -182.85216,-32.8997 -11.78579,-4.9605 -25.14784,-13.9465 -25.14784,-16.9119 0,-0.5265 -1.12276,-3.3306 -2.49502,-6.2313 -1.37225,-2.9008 -2.96042,-7.6692 -3.52926,-10.5965 -0.56884,-2.9274 -1.76029,-7.8868 -2.64768,-11.0209 -1.33874,-4.7282 -1.40001,-6.2136 -0.35983,-8.7249 4.14793,-10.0139 27.64091,-21.8409 56.98689,-28.6887 17.80957,-4.1558 38.82565,-8.1155 54.5449,-10.277 72.42948,-9.9593 115.43646,-13.9439 190,-17.6035 16.5,-0.8098 34.5,-1.7561 40,-2.1028 l 10,-0.6304 6.01865,-6.1371 c 12.19591,-12.4361 20.6974,-35.827895 24.46025,-67.302395 0.58092,-4.8591 1.5723,-9.8435 2.20307,-11.0763 0.86477,-1.6901 0.86046,-2.87 -0.0176,-4.797 -1.54679,-3.3948 -1.48131,-8.9536 0.12112,-10.2835 0.89752,-0.7449 36.43835,-1.0082 117.75001,-0.8725 l 116.46453,0.1945 -0.2105,6.5 c -0.1158,3.575 -0.2455,7.4 -0.2882,8.5 -0.099,2.5571 1.6706,17.1022 3.0363,24.954 1.8319,10.5322 7.1192,28.7879 10.4752,36.1679 6.1827,13.595995 16.7101,26.371695 21.7401,26.383195 24.7844,0.057 149.2742,9.4429 172.7471,13.0246 3.575,0.5455 16.475,2.3278 28.6666,3.9605 45.7682,6.1296 92.6976,15.5233 110.7515,22.1688 17.8013,6.5526 32.4995,16.56 34.1596,23.258 0.4482,1.8086 0.1237,4.8484 -0.8541,8 -0.8674,2.7956 -2.0784,7.558 -2.691,10.583 -0.6126,3.025 -2.2165,7.75 -3.5641,10.5 -1.3476,2.75 -2.4543,5.4688 -2.4594,6.0418 -0.02,2.2755 -8.8722,9.5316 -15.0273,12.3176 -32.958,14.9179 -90.7046,26.2542 -178.9818,35.1363 -13.0016,1.3082 -66.3598,4.5859 -114,7.0029 -21.725,1.1023 -47.825,2.4521 -58,2.9996 -18.3795,0.9891 -142.91133,2.0565 -163.00007,1.3971 z m -18,-181.395295 c -1.97012,-1.2732 -4.28687,-1.2732 -3.5,0 0.33992,0.549995 1.60398,0.993095 2.80902,0.984695 1.78123,-0.013 1.91046,-0.1966 0.69098,-0.984695 z"
       style="fill:#666666" />
    <path
       sodipodi:nodetypes="csssscsscsssscsssccscscsscsssccsscssssccsscs"
       inkscape:connector-curvature="0"
       id="path4034"
       d="m 493.75447,281.07847 c -5.775,-0.1895 -25.61635,-0.8079 -44.09189,-1.3742 -54.35663,-1.666 -150.50015,-7.2253 -199.90811,-11.5592 -76.60506,-6.7196 -153.53905,-20.562 -182.85216,-32.8997 -11.78579,-4.9605 -25.14784,-13.9465 -25.14784,-16.9119 0,-0.5265 -1.12276,-3.3306 -2.49502,-6.2313 -1.37225,-2.9008 -2.96042,-7.6692 -3.52926,-10.5965 -0.56884,-2.9274 -1.76029,-7.8868 -2.64768,-11.0209 -1.33874,-4.7282 -1.40001,-6.2136 -0.35983,-8.7249 4.14793,-10.0139 27.64091,-21.8409 56.98689,-28.6887 17.80957,-4.1558 38.82565,-8.1155 54.5449,-10.277 72.42948,-9.9593 115.43646,-13.9439 190,-17.6035 16.5,-0.8098 34.5,-1.7561 40,-2.1028 l 10,-0.6304 6.01865,-6.1371 c 12.19591,-12.4361 20.6974,-35.827895 24.46025,-67.302395 0.58092,-4.8591 1.5723,-9.8435 2.20307,-11.0763 0.86477,-1.6901 0.86046,-2.87 -0.0176,-4.797 -1.53659,-3.3725 -1.48496,-8.9506 0.095,-10.2618 0.86268,-0.716 37.95504,-0.9908 117.75003,-0.8725 l 116.49063,0.1728 -0.2105,6.5 c -0.1158,3.575 -0.2455,7.4 -0.2882,8.5 -0.099,2.5571 1.6706,17.1022 3.0363,24.954 1.8319,10.5322 7.1192,28.7879 10.4752,36.1679 6.1827,13.595995 16.7101,26.371695 21.7401,26.383195 24.7844,0.057 149.2742,9.4429 172.7471,13.0246 3.575,0.5455 16.475,2.3278 28.6666,3.9605 45.7682,6.1296 92.6976,15.5233 110.7515,22.1688 17.8013,6.5526 32.4995,16.56 34.1596,23.258 0.4482,1.8086 0.1237,4.8484 -0.8541,8 -0.8674,2.7956 -2.0784,7.558 -2.691,10.583 -0.6126,3.025 -2.2165,7.75 -3.5641,10.5 -1.3476,2.75 -2.4543,5.4688 -2.4594,6.0418 -0.02,2.2755 -8.8722,9.5316 -15.0273,12.3176 -32.958,14.9179 -90.7046,26.2542 -178.9818,35.1363 -13.0016,1.3082 -66.3598,4.5859 -114,7.0029 -21.725,1.1023 -47.825,2.4521 -58,2.9996 -18.3795,0.9891 -142.91133,2.0565 -163.00006,1.3971 z m -18,-181.395295 c -1.97012,-1.2732 -4.28687,-1.2732 -3.5,0 0.33992,0.549995 1.60398,0.993095 2.80902,0.984695 1.78123,-0.013 1.91046,-0.1966 0.69098,-0.984695 z"
       style="fill:#555555" />
    <path
       inkscape:connector-curvature="0"
       id="path4032"
       d="m 488.25447,279.08507 c -105.72775,-3.2085 -166.94651,-6.55 -245.5,-13.4003 -63.76148,-5.5603 -131.11483,-16.8845 -164.5,-27.6574 -10.13366,-3.27 -26.38193,-11.6394 -30.51726,-15.7193 -3.41353,-3.3678 -6.2617,-10.0889 -5.42022,-12.7907 0.28536,-0.9163 0.0505,-1.9553 -0.52184,-2.3091 -0.57238,-0.3537 -1.04068,-1.4709 -1.04068,-2.4826 0,-1.0117 -1.35,-4.4058 -3,-7.5425 -2.73472,-5.1988 -3.72276,-8.5 -2.54401,-8.5 0.2508,0 2.8383,1.4097 5.75,3.1328 11.37135,6.729 28.89689,12.9184 53.29401,18.8214 9.34234,2.2604 42.97502,8.8525 48.5,9.5061 3.025,0.3579 7.75,1.0693 10.5,1.581 2.75,0.5118 9.95,1.5867 16,2.3888 6.05,0.8021 16.175,2.151 22.5,2.9976 6.325,0.8465 18.12277,1.9741 26.21727,2.5058 8.0945,0.5316 16.4195,1.42 18.5,1.9742 2.0805,0.5541 15.48273,1.9338 29.78273,3.0659 14.3,1.132 31.05464,2.5325 37.23253,3.1121 6.1779,0.5797 11.5779,0.8538 12,0.6091 0.42211,-0.2447 7.29247,-0.04 15.26747,0.4541 7.975,0.4945 24.175,1.3245 36,1.8445 11.825,0.5201 26.63106,1.2375 32.90236,1.5943 10.87189,0.6186 11.36663,0.5619 10.63434,-1.2195 -1.73684,-4.2249 -2.48585,-9.6837 -3.48076,-25.3682 -0.57566,-9.075 -1.04874,-17.0625 -1.05129,-17.75 -0.003,-0.8672 -1.93379,-1.25 -6.30465,-1.25 -3.465,0 -6.7275,-0.4216 -7.25,-0.937 -0.5225,-0.5153 -5.96927,-1.2516 -12.10394,-1.6362 -10.35383,-0.6491 -11.24468,-0.8689 -12.41898,-3.063 -1.12656,-2.105 -1.96194,-2.3638 -7.63124,-2.3638 -4.27959,0 -7.20717,-0.551 -8.93195,-1.6811 -2.13679,-1.4001 -3.08526,-1.4851 -5.67308,-0.5083 -3.45818,1.3053 -5.59533,0.185 -3.29263,-1.7261 2.61791,-2.1727 0.74322,-4.0845 -4.00517,-4.0845 -2.41615,0 -4.39301,-0.4187 -4.39301,-0.9304 0,-0.5118 -1.0125,-1.0743 -2.25,-1.25 -1.9209,-0.2729 -2.29464,-1.0159 -2.55521,-5.0798 -0.22971,-3.5827 0.0795,-4.9078 1.25,-5.357 0.99571,-0.3821 1.55521,-1.8519 1.55521,-4.0854 0,-4.2461 2.93063,-8.6118 6.87883,-10.2472 1.6119,-0.6677 3.14051,-2.0161 3.3969,-2.9966 0.29774,-1.1385 1.86767,-2.0445 4.34522,-2.5076 2.13348,-0.3987 4.44655,-1.194 5.14017,-1.7672 1.86818,-1.5438 7.08473,-4.5082 12.73888,-7.2389 7.14109,-3.4489 12.60877,-7.3416 21.04952,-14.9862 12.6789,-11.4829 20.01463,-25.136895 25.82953,-48.076595 2.9027,-11.451 5.61103,-27.2271 5.61693,-32.7186 0.003,-2.6556 0.58449,-4.1041 2.00402,-4.9906 2.50961,-1.5673 2.49849,-2.1746 -0.10433,-5.6951 -1.56255,-2.1135 -1.93347,-3.6242 -1.4407,-5.8678 l 0.66363,-3.0215 58.6907,-0.1521 c 32.2799,-0.084 61.3907,-0.1423 64.6907,-0.1303 3.3,0.012 29.0165,0.1111 57.1478,0.2203 l 51.14773,0.1985 0.6244,3.9043 c 0.4885,3.0553 0.1813,4.4674 -1.4131,6.4943 -1.7565,2.233 -1.8462,2.8102 -0.6508,4.1858 0.7652,0.8807 1.6937,5.1427 2.072,9.5112 1.5044,17.3732 8.7586,44.3475 15.2792,56.815195 4.3975,8.408 14.7162,20.6108 21.0151,24.8522 2.6277,1.7694 5.6792,4.0238 6.7811,5.0098 1.7289,1.547 6.2553,4.0461 25.4966,14.0773 1.925,1.0035 4.7282,2.8383 6.2293,4.0773 1.5011,1.239 5.9718,3.3777 9.9349,4.7527 7.4548,2.5865 10.0707,5 5.4191,5 -2.5063,0 -2.5833,0.1891 -2.5833,6.345 0,6.9057 -1.6598,9.655 -5.8287,9.655 -1.6359,0 -2.1713,0.6024 -2.1713,2.4433 0,2.627 -3.2807,5.5567 -6.2225,5.5567 -0.9776,0 -1.7775,0.45 -1.7775,1 0,0.5866 -3.4437,1 -8.331,1 -7.863,0 -8.4062,0.1405 -9.669,2.5 -1.2041,2.2499 -1.9521,2.5 -7.4779,2.5 -3.8504,0 -6.8636,0.5475 -8.081,1.4682 -1.2372,0.9358 -4.3275,1.4797 -8.5221,1.5 -5.9806,0.029 -6.7031,0.2599 -7.919,2.5318 -0.8307,1.5522 -2.2084,2.5 -3.6338,2.5 -1.266,0 -2.772,0.8897 -3.3574,1.9835 -0.6505,1.2155 -1.9226,1.8931 -3.2852,1.75 -2.1071,-0.2213 -2.2593,0.2381 -2.9047,8.7665 -0.8499,11.2296 -2.4675,24.2566 -3.3947,27.3379 l -0.7034,2.3379 13.3896,-0.6518 c 20.9073,-1.0176 59.024,-2.5976 73.8896,-3.0628 12.7199,-0.398 24.6048,-1.1632 54,-3.4765 6.875,-0.5411 21.683,-1.676 32.9066,-2.522 11.2237,-0.8461 20.7235,-1.7341 21.1108,-1.9735 0.3873,-0.2393 6.0543,-0.9103 12.5934,-1.491 6.5391,-0.5808 16.3892,-1.6952 21.8892,-2.4766 5.5,-0.7814 15.4,-2.1531 22,-3.0482 31.5105,-4.2735 53.0035,-8.1604 75.2785,-13.6136 16.5296,-4.0466 26.9052,-7.6621 37.9962,-13.2401 l 9.2747,-4.6646 -0.6651,2.7725 c -0.3657,1.5248 -1.2768,3.9876 -2.0246,5.4727 -0.7479,1.4852 -1.3597,3.3525 -1.3597,4.1496 0,0.797 -1.5086,3.6909 -3.3524,6.4307 -1.872,2.7818 -3.6009,6.8348 -3.9152,9.1782 -0.6863,5.1167 -2.7138,7.4871 -9.2324,10.7937 -14.2526,7.2297 -34.3378,13.1421 -68.5916,20.191 -25.0378,5.1524 -38.4804,7.1583 -76.9313,11.4801 -47.8101,5.3737 -65.8808,6.7777 -123.4771,9.5934 -11,0.5378 -37.1,1.8836 -58,2.9908 -28.9953,1.5361 -55.0616,2.0978 -110.00003,2.3705 -39.6,0.1966 -76.95,0.2072 -83,0.024 z m -56.5,-29.2508 c 0,-0.4668 -7.0875,-1.1601 -15.75,-1.5405 -21.69166,-0.9526 -95.44753,-5.3287 -119.75,-7.105 -17.33365,-1.2669 -40.36888,-1.8758 -30.5,-0.8062 1.925,0.2086 5.975,0.825 9,1.3696 10.48549,1.888 73.67016,5.9459 108.5,6.9682 19.25,0.565 36.35,1.1658 38,1.335 6.53844,0.6707 10.5,0.5873 10.5,-0.2211 z m 295.00003,-1.7278 c 30.4927,-1.37 57.1261,-3.2309 78.3465,-5.4743 5.0344,-0.5322 14.7785,-1.4563 21.6535,-2.0535 6.875,-0.5972 13.175,-1.4793 14,-1.9603 1.9752,-1.1514 0.7585,-1.1444 -15,0.087 -18.605,1.4535 -79.9777,5.2372 -129,7.9531 -48.0088,2.6597 -54.3888,3.0812 -54.9254,3.6285 -0.7744,0.7897 44.9456,-0.384 84.9254,-2.1802 z m -467.00003,-8.4233 c 1.1003,-0.7111 0.43413,-0.9547 -2.5,-0.9144 -3.14267,0.043 -3.57133,0.2392 -2,0.9144 2.63124,1.1307 2.75039,1.1307 4.5,0 z m 403.54113,-37.0665 c 0.6173,-0.9988 -2.1351,-3.8315 -3.7911,-3.9017 -0.9287,-0.039 -0.9951,3.3897 -0.083,4.3015 1.0148,1.0149 3.1353,0.7961 3.8744,-0.3998 z m -158.09523,-95.9335 c -0.1565,-10.122095 -2.7558,-29.555195 -4.0528,-30.299695 -1.9411,-1.1142 -1.7402,-4.703 0.3569,-6.3754 1.6587,-1.3228 1.6502,-1.459 -0.1623,-2.6103 -3.6786,-2.3366 -5.5877,-4.7332 -5.5877,-7.0146 0,-3.1543 -1.81729,-4.7 -5.52569,-4.7 -2.04109,0 -3.94064,-0.8675 -5.47431,-2.5 -3.13905,-3.3414 -5,-3.2018 -5,0.375 0,1.5813 -0.26652,4.2076 -0.59226,5.8363 -0.99301,4.965 1.63086,6.6247 9.19326,5.8148 l 6.26151,-0.6706 0.31874,3.3223 c 0.35475,3.6975 -2.33389,12.0397 -4.06643,12.6173 -0.61315,0.2043 -1.12171,-0.4534 -1.13013,-1.4618 -0.0278,-3.3242 -1.54906,-4.3509 -7.55181,-5.0965 l -5.93288,-0.7369 -0.5,-7.4999 c -0.46282,-6.9423 -0.67489,-7.5248 -2.85171,-7.8329 -4.09585,-0.5797 -7.08076,0.7157 -7.74473,3.3611 -0.34479,1.3738 -0.13427,3.0913 0.46783,3.8168 1.72452,2.078 -0.9554,4.8209 -5.41892,5.5465 -3.41557,0.5552 -3.98735,1.0522 -4.73951,4.1199 -0.47044,1.9187 -1.33488,5.1444 -1.92098,7.1682 -0.9958,3.4385 -0.82361,4.0094 2.62729,8.7104 2.03112,2.767 5.35519,6.3453 7.38683,7.9519 6.16628,4.876195 28.56219,11.957895 37.1939,11.760795 4.4675,-0.102 4.4996,-0.128 4.4459,-3.6027 z m 65.2376,1.4997 c 3.951,-0.8243 8.3678,-1.9489 9.8151,-2.4992 1.4474,-0.5503 3.6816,-1.0005 4.965,-1.0005 4.0591,0 13.7395,-5.895395 19.6798,-11.984995 4.7996,-4.9203 5.4971,-6.0684 4.2936,-7.0673 -0.7903,-0.6559 -1.437,-2.2257 -1.437,-3.4884 0,-4.9327 -0.787,-5.4593 -8.159,-5.4593 -6.8176,0 -6.9642,0.055 -7.9908,3 -0.5752,1.65 -1.2413,3 -1.4801,3 -1.8572,0 -7.4934,-3.2771 -10.0734,-5.8571 -1.7286,-1.7286 -3.8525,-3.1429 -4.7198,-3.1429 -1.1355,0 -1.5769,-0.9797 -1.5769,-3.5 0,-1.925 -0.45,-3.5 -1,-3.5 -0.55,0 -1,-1.35 -1,-3 0,-2.6667 0.3333,-3 3,-3 1.65,0 3,0.45 3,1 0,0.6 4,1 10,1 9.148,0 10,-0.1614 10,-1.8947 0,-1.7331 -1.0448,-1.9313 -12.25,-2.324 -9.361,-0.3282 -12.5118,-0.1172 -13.3602,0.8946 -0.6107,0.7283 -2.0573,1.3241 -3.2149,1.3241 -2.2939,0 -4.1749,2.6737 -4.1749,5.9343 0,2.7551 1.6165,2.6403 2.3506,-0.1671 1.0066,-3.849 2.5812,-0.6167 1.9557,4.0148 -0.5421,4.0148 -0.6882,4.1824 -2.3409,2.6867 -1.9513,-1.7659 -1.826,-2.0464 -6.9371,15.5313 -1.1994,4.125 -3.7532,10.5375 -5.675,14.249995 l -3.4941,6.75 6.3204,-8e-4 c 3.4762,-5e-4 9.553,-0.6752 13.5039,-1.4995 z m 25.8165,-55.499695 c 1.7736,-1.9598 1.7466,-2 -1.345,-2 -2.9672,0 -4.1873,1.6344 -2.4883,3.3333 1.0783,1.0784 1.9137,0.7878 3.8333,-1.3333 z M 741.7545,169.68317 c 0,-3.2888 1.9184,-4.0082 4,-1.5 0.9932,1.1967 0.9932,1.8033 0,3 -2.0816,2.5082 -4,1.7888 -4,-1.5 z"
       style="fill:#242424"
       sodipodi:nodetypes="csssccssscsccscccscscsscscscscscsssscscsccccsssccssccssccscsssccssssssssscscscscssccssssccsssscccscsssssssccsssccscscssccsccccccccccccsssssssssscsccscsscscsscsssscsscsscssssssssssccssccsssccssscssccs" />
  </g>
</svg>
